{
	"asset":{
		"generator":"Khronos glTF Blender I/O v4.4.55",
		"version":"2.0"
	},
	"scene":0,
	"scenes":[
		{
			"name":"Scene",
			"nodes":[
				0
			]
		}
	],
	"nodes":[
		{
			"mesh":0,
			"name":"Cube.009"
		}
	],
	"meshes":[
		{
			"name":"Cube.014",
			"primitives":[
				{
					"attributes":{
						"POSITION":0,
						"NORMAL":1,
						"TEXCOORD_0":2
					},
					"indices":3
				}
			]
		}
	],
	"accessors":[
		{
			"bufferView":0,
			"componentType":5126,
			"count":50953,
			"max":[
				3.5402896404266357,
				2.0316529273986816,
				2.23594331741333
			],
			"min":[
				-3.355539321899414,
				-3.220022678375244,
				-2.0364062786102295
			],
			"type":"VEC3"
		},
		{
			"bufferView":1,
			"componentType":5126,
			"count":50953,
			"type":"VEC3"
		},
		{
			"bufferView":2,
			"componentType":5126,
			"count":50953,
			"type":"VEC2"
		},
		{
			"bufferView":3,
			"componentType":5123,
			"count":95592,
			"type":"SCALAR"
		}
	],
	"bufferViews":[
		{
			"buffer":0,
			"byteLength":611436,
			"byteOffset":0,
			"target":34962
		},
		{
			"buffer":0,
			"byteLength":611436,
			"byteOffset":611436,
			"target":34962
		},
		{
			"buffer":0,
			"byteLength":407624,
			"byteOffset":1222872,
			"target":34962
		},
		{
			"buffer":0,
			"byteLength":191184,
			"byteOffset":1630496,
			"target":34963
		}
	],
	"buffers":[
		{
			"byteLength":1821680,
			"uri":"basement.bin"
		}
	]
}
